<svg width="77" height="56" viewBox="0 0 77 56" fill="none" xmlns="http://www.w3.org/2000/svg">
<path d="M33.2319 9.579C17.1407 14.2172 1.23014 23.4256 3.52909 31.4013L6.89685 43.085C9.1958 51.0606 27.5868 50.4575 43.6781 45.8193C59.7693 41.1811 75.6799 31.9727 73.3809 23.997L69.993 12.2434C67.7142 4.33768 49.3232 4.94076 33.2319 9.579ZM25.8764 46.101C16.8167 46.7422 10.6123 45.1966 9.78546 42.3281L7.93017 35.8916C11.8448 37.6427 17.9163 37.9385 24.6956 37.2726C23.6795 39.0052 23.4544 41.116 23.9989 43.005C24.3417 44.1943 25.0142 45.2129 25.8764 46.101ZM15.2276 34.3943C20.3891 30.4818 28.4014 26.7325 37.4265 24.1311C46.4516 21.5296 55.2302 20.439 61.6824 21.004C56.8801 24.5857 49.188 28.3941 39.4633 31.1973C29.7588 34.0703 21.2197 34.9404 15.2276 34.3943ZM70.5125 24.8238C71.8031 29.3014 60.7615 37.7883 42.8512 42.9509C39.0033 44.06 35.4447 44.8584 32.0355 45.3865C29.7161 45.752 27.4925 44.347 26.8673 42.1781C26.5044 40.9188 26.6714 39.6583 27.4089 38.5364C28.0764 37.4347 29.2147 36.6519 30.5144 36.4289C33.7635 35.8712 37.092 35.0633 40.3103 34.1357C52.4137 30.6469 64.441 24.528 68.637 18.3173L70.5125 24.8238ZM64.7167 18.3865C57.6929 17.1528 47.3039 18.1772 36.5997 21.2626C25.8955 24.3481 16.5552 29.0105 11.2657 33.7935C8.57379 33.1297 6.82102 32.0437 6.39753 30.5745C5.10689 26.0969 16.1485 17.61 34.0588 12.4474C51.969 7.28488 65.8541 8.66259 67.1245 13.0702C67.548 14.5394 66.6422 16.3918 64.7167 18.3865Z" fill="#4AB1D2" fill-opacity="0.52"/>
<path d="M32.1692 42.6958C33.1352 42.4174 33.6926 41.4086 33.4141 40.4426C33.1357 39.4767 32.1269 38.9193 31.1609 39.1977C30.195 39.4762 29.6376 40.485 29.916 41.451C30.1945 42.4169 31.2033 42.9743 32.1692 42.6958Z" fill="#4AB1D2" fill-opacity="0.52"/>
<path d="M37.7971 41.4524C38.7631 41.174 39.3205 40.1652 39.042 39.1992C38.7636 38.2333 37.7548 37.6759 36.7888 37.9543C35.8228 38.2328 35.2655 39.2416 35.5439 40.2075C35.8224 41.1735 36.8311 41.7309 37.7971 41.4524Z" fill="#4AB1D2" fill-opacity="0.52"/>
<path d="M43.4344 39.9792C44.4004 39.7007 44.9577 38.6919 44.6793 37.726C44.4009 36.76 43.3921 36.2026 42.4261 36.4811C41.4601 36.7595 40.9028 37.7683 41.1812 38.7343C41.4596 39.7003 42.4684 40.2576 43.4344 39.9792Z" fill="#4AB1D2" fill-opacity="0.52"/>
<path d="M48.9211 38.246C49.887 37.9676 50.4444 36.9588 50.166 35.9928C49.8875 35.0268 48.8787 34.4695 47.9128 34.7479C46.9468 35.0264 46.3894 36.0352 46.6679 37.0011C46.9463 37.9671 47.9551 38.5245 48.9211 38.246Z" fill="#4AB1D2" fill-opacity="0.52"/>
</svg>
