<svg width="465" height="579" viewBox="0 0 465 579" fill="none" xmlns="http://www.w3.org/2000/svg">
<path d="M383.143 215.734C379.193 213.402 376.688 216.393 371.602 217.338C364.237 218.842 363.358 223.435 366.282 226.275C369.097 228.994 373.32 227.296 376.843 229.358C380.366 231.42 381.594 236.5 385.187 237.608C388.78 238.716 391.58 235.229 388.477 227.445C386.3 222.134 386.993 218.159 383.143 215.734Z" fill="#839AA9"/>
<path d="M374.892 207.174C375.771 211.246 374.441 214.925 371.937 215.028C369.432 215.131 366.602 211.982 365.715 207.695C364.837 203.622 366.167 199.944 368.671 199.841C371.175 199.738 373.905 202.981 374.892 207.174Z" fill="#839AA9"/>
<path d="M393.906 218.628C390.406 220.1 388.75 223.415 390.095 225.943C391.44 228.471 395.337 229.298 398.727 227.705C402.227 226.234 403.884 222.919 402.538 220.391C401.302 217.984 397.406 217.157 393.906 218.628Z" fill="#839AA9"/>
<path d="M386.628 205.167C385.624 209.209 382.684 211.716 380.033 210.623C377.381 209.53 375.973 205.282 376.977 201.24C377.98 197.198 380.92 194.692 383.572 195.785C386.123 196.971 387.522 201.004 386.628 205.167Z" fill="#839AA9"/>
<path d="M388.657 206.393C386.371 209.627 386.207 213.778 388.579 215.797C390.842 217.696 394.567 216.682 396.955 213.354C399.241 210.121 399.405 205.97 397.033 203.95C394.77 202.052 390.944 203.16 388.657 206.393Z" fill="#839AA9"/>
<path d="M26.578 203.85C22.7578 206.389 24.3584 209.947 22.9915 214.936C21.1355 222.22 24.886 225.013 28.7165 223.619C32.3906 222.271 32.7027 217.73 36.0939 215.458C39.4851 213.186 44.593 214.295 47.1564 211.544C49.7199 208.794 47.8012 204.753 39.4431 204.153C33.7146 203.798 30.4386 201.442 26.578 203.85Z" fill="#839AA9"/>
<path d="M15.2781 207.545C19.3261 208.529 22.0571 211.329 21.0582 213.628C20.0593 215.927 15.9915 217.102 11.7467 216.031C7.6987 215.047 4.9677 212.246 5.96661 209.948C6.96552 207.649 11.0737 206.606 15.2781 207.545Z" fill="#839AA9"/>
<path d="M33.8743 195.424C33.6731 199.215 35.9348 202.151 38.7964 202.043C41.6581 201.934 44.1003 198.787 44.1451 195.042C44.3463 191.251 42.0846 188.315 39.223 188.423C36.5177 188.487 34.0755 191.633 33.8743 195.424Z" fill="#839AA9"/>
<path d="M18.5869 196.108C21.7872 198.773 22.762 202.511 20.6223 204.422C18.4827 206.332 14.0462 205.747 10.8459 203.082C7.64552 200.417 6.67075 196.679 8.81038 194.769C10.9904 192.99 15.2301 193.488 18.5869 196.108Z" fill="#839AA9"/>
<path d="M20.5754 194.816C22.4889 198.283 26.1534 200.239 29.0048 198.985C31.6998 197.776 32.4107 193.981 30.4568 190.382C28.5434 186.914 24.8788 184.958 22.0274 186.213C19.3325 187.422 18.6619 191.348 20.5754 194.816Z" fill="#839AA9"/>
<path d="M198.742 51.9315C194.165 52.1383 193.703 56.0073 189.965 59.5739C184.626 64.8529 186.398 69.1742 190.394 69.9532C194.233 70.6904 196.838 66.9645 200.91 66.7659C204.982 66.5672 208.783 70.1457 212.393 69.1111C216.004 68.0766 216.441 63.631 209.597 58.8142C204.876 55.5612 203.285 51.8584 198.742 51.9315Z" fill="#839AA9"/>
<path d="M187.168 49.277C190.126 52.2033 191.021 56.0061 188.983 57.4592C186.945 58.9123 182.858 57.824 179.776 54.7222C176.819 51.796 175.923 47.9932 177.961 46.54C179.999 45.0869 184.053 46.3089 187.168 49.277Z" fill="#839AA9"/>
<path d="M209.324 48.4767C207.2 51.6178 207.624 55.295 210.13 56.6751C212.635 58.0551 216.345 56.6195 218.312 53.4365C220.436 50.2953 220.011 46.6181 217.506 45.2381C215.158 43.8999 211.448 45.3355 209.324 48.4767Z" fill="#839AA9"/>
<path d="M195.888 41.1918C197.255 45.1201 196.165 48.8217 193.35 49.3552C190.535 49.8887 187.039 47.1043 185.672 43.1759C184.304 39.2476 185.395 35.546 188.209 35.0125C190.991 34.6127 194.363 37.2216 195.888 41.1918Z" fill="#839AA9"/>
<path d="M198.254 41.1092C198.107 45.0619 200.237 48.6229 203.323 49.0171C206.252 49.3695 208.814 46.4876 208.995 42.4012C209.142 38.4485 207.013 34.8875 203.926 34.4933C200.997 34.1409 198.402 37.1565 198.254 41.1092Z" fill="#839AA9"/>
<path d="M67.5723 300.74C66.2565 297.63 62.6463 296.167 59.5366 297.483C56.7952 298.643 55.3412 301.477 55.9 304.28L39.3698 311.274C37.7472 308.921 34.7004 307.991 31.959 309.151C28.8494 310.467 27.386 314.077 28.7017 317.187C29.2731 318.537 30.2598 319.615 31.5346 320.234C31.1082 321.62 31.1775 323.038 31.7488 324.388C33.0646 327.498 36.6748 328.961 39.7844 327.646C42.5258 326.486 43.9798 323.651 43.421 320.849L59.9103 313.871C61.5329 316.224 64.5797 317.154 67.3211 315.994C70.4308 314.678 71.8942 311.068 70.5784 307.958C70.0071 306.608 69.0203 305.53 67.7456 304.912C68.2129 303.508 68.1436 302.09 67.5723 300.74ZM65.8996 306.706C67.0359 306.997 67.9597 307.812 68.4098 308.876C69.2236 310.799 68.3266 313.012 66.4035 313.826C64.5214 314.622 62.3433 313.807 61.4887 311.901C61.229 311.287 60.5476 311.045 59.9338 311.305L41.5624 319.078C40.9486 319.338 40.7063 320.019 40.9078 320.609C41.6632 322.509 40.7899 324.663 38.8668 325.477C36.9438 326.291 34.7311 325.394 33.9174 323.471C33.4672 322.407 33.5254 321.176 34.1076 320.158C34.3075 319.832 34.2917 319.453 34.1532 319.126C34.0147 318.798 33.7126 318.54 33.3805 318.44C32.2443 318.148 31.3204 317.333 30.8703 316.269C30.0566 314.346 30.9535 312.134 32.8766 311.32C34.7588 310.524 36.9368 311.339 37.7915 313.244C38.0511 313.858 38.7326 314.101 39.3463 313.841L57.7996 306.033C58.4134 305.773 58.6557 305.092 58.4542 304.501C57.6987 302.602 58.5721 300.448 60.4951 299.634C62.4182 298.82 64.6309 299.717 65.4446 301.64C65.8948 302.704 65.8366 303.935 65.2543 304.953C65.0545 305.279 65.0702 305.658 65.2087 305.985C65.2654 306.347 65.5676 306.605 65.8996 306.706Z" fill="#839AA9"/>
<path d="M46.0593 304.053C46.673 303.794 46.9563 303.095 46.6966 302.481L45.4674 299.576C45.2077 298.962 44.5089 298.679 43.8952 298.939C43.2814 299.199 42.9982 299.897 43.2579 300.511L44.4871 303.416C44.7468 304.03 45.4456 304.313 46.0593 304.053Z" fill="#839AA9"/>
<path d="M50.4504 303.257C50.6487 303.27 50.7887 303.259 50.9524 303.189C51.3616 303.016 51.6669 302.598 51.6747 302.16L51.7942 299.022C51.8146 298.386 51.2921 297.835 50.639 297.774C50.0032 297.754 49.4524 298.276 49.3911 298.929L49.2716 302.067C49.2512 302.703 49.7737 303.254 50.4504 303.257Z" fill="#839AA9"/>
<path d="M40.7733 306.724C41.151 307.047 41.6058 307.096 42.0149 306.923C42.1786 306.853 42.325 306.743 42.4131 306.609C42.8411 306.139 42.8096 305.38 42.3217 304.911L39.9862 302.812C39.5156 302.384 38.7571 302.416 38.2882 302.903C37.8601 303.374 37.8916 304.133 38.3795 304.602L40.7733 306.724Z" fill="#839AA9"/>
<path d="M53.2619 321.075C52.6481 321.334 52.3649 322.033 52.6246 322.647L53.8538 325.552C54.1135 326.166 54.8122 326.449 55.426 326.189C56.0397 325.93 56.323 325.231 56.0633 324.617L54.8341 321.712C54.5744 321.098 53.8756 320.815 53.2619 321.075Z" fill="#839AA9"/>
<path d="M48.8709 321.871C48.2351 321.851 47.6843 322.373 47.6229 323.026L47.5035 326.164C47.483 326.8 48.0056 327.351 48.6587 327.412C48.8569 327.425 48.997 327.414 49.1607 327.345C49.5698 327.172 49.8751 326.753 49.883 326.315L50.0024 323.177C50.0701 322.425 49.5476 321.874 48.8709 321.871Z" fill="#839AA9"/>
<path d="M58.5477 318.404C58.0771 317.976 57.3186 318.007 56.8496 318.495C56.4216 318.966 56.4531 319.724 56.941 320.193L59.2765 322.292C59.6542 322.615 60.109 322.664 60.5182 322.491C60.6819 322.421 60.8282 322.311 60.9163 322.178C61.3444 321.707 61.3129 320.948 60.825 320.479L58.5477 318.404Z" fill="#839AA9"/>
<path d="M295.894 550.272C295.815 547.284 292.528 544.543 286.594 542.502C287 541.682 287.217 540.792 287.217 539.881C287.217 536.346 284.065 533.472 280.191 533.472C279.318 533.472 278.467 533.62 277.652 533.911C276.348 532.456 274.195 531.568 271.905 531.568C270.867 531.568 269.836 531.75 268.899 532.098C267.268 530.76 265.041 530 262.72 530C259.591 530 256.751 531.341 255.196 533.527C251.518 533.129 248.228 534.786 246.973 537.393C243.889 537.448 241.357 539.546 240.969 542.242C234.541 544.309 230.973 547.147 230.889 550.27L227.02 565.415L227 565.573C227 572.548 242.985 578.01 263.393 578.01C283.799 578.01 299.785 572.547 299.785 565.573L295.894 550.272ZM247.095 538.672C247.148 538.672 247.2 538.676 247.253 538.679L247.821 538.705L247.986 538.274C248.775 536.201 251.322 534.752 254.179 534.752C254.581 534.752 254.996 534.785 255.413 534.846L255.827 534.906L256.049 534.551C257.31 532.534 259.866 531.28 262.719 531.28C264.875 531.28 266.926 532.02 268.344 533.31L268.649 533.587L269.027 533.424C269.903 533.047 270.897 532.847 271.904 532.847C273.994 532.847 275.924 533.695 276.941 535.059L277.241 535.463L277.705 535.264C278.494 534.924 279.33 534.752 280.191 534.752C283.36 534.752 285.937 537.053 285.937 539.881C285.937 540.808 285.645 541.704 285.116 542.496L285.114 542.498C285.112 542.5 285.111 542.502 285.109 542.505C285.068 542.564 285.038 542.627 284.996 542.686L284.965 542.727L284.348 543.552L284.359 543.553L285.424 543.699C287.928 544.041 289.745 545.238 289.745 546.544C289.745 547.329 289.087 547.932 288.57 548.286C288.487 548.342 288.408 548.393 288.335 548.437L287.298 549.06L288.397 549.566C289.521 550.083 290.192 550.92 290.192 551.808C290.192 553.13 287.608 554.528 285.166 554.528H285.061L284.961 554.562C283.847 554.94 282.693 555.271 281.517 555.579C276.518 556.881 270.971 557.552 264.952 557.552C254.655 557.552 245.828 555.593 242.824 554.842C242.131 554.669 241.748 554.561 241.729 554.555L241.552 554.53C238.816 554.53 236.592 552.556 236.592 550.129C236.592 547.703 238.816 545.729 241.552 545.729C241.723 545.729 241.893 545.737 242.058 545.753L243.252 545.857L242.675 544.807C242.354 544.222 242.191 543.6 242.191 542.961C242.191 542.923 242.194 542.887 242.197 542.85L242.216 542.519C242.471 540.361 244.562 538.672 247.095 538.672ZM240.952 543.591C240.955 543.618 240.962 543.645 240.966 543.672C240.972 543.714 240.981 543.756 240.988 543.798C241.025 544.019 241.074 544.237 241.141 544.453C241.141 544.455 241.141 544.458 241.142 544.461C237.892 544.654 235.312 547.122 235.312 550.129C235.312 553.233 238.063 555.766 241.463 555.809C241.618 555.852 241.98 555.949 242.515 556.083C245.586 556.851 254.526 558.831 264.952 558.831C264.954 558.831 264.954 558.831 264.956 558.831C272.486 558.831 279.321 557.814 285.275 555.809C288.224 555.768 291.473 554.071 291.473 551.809C291.473 551.531 291.436 551.259 291.363 550.994C291.147 550.2 290.615 549.481 289.832 548.924C290.609 548.233 291.025 547.413 291.025 546.545C291.025 546.482 291.017 546.421 291.012 546.359C291.008 546.307 291.008 546.256 291.002 546.206C290.993 546.146 290.979 546.087 290.968 546.028C290.956 545.972 290.947 545.916 290.932 545.86C290.929 545.847 290.927 545.834 290.924 545.82C293.32 547.237 294.624 548.809 294.624 550.382C294.624 555.152 282.074 560.259 263.392 560.259C244.71 560.259 232.16 555.152 232.16 550.382C232.16 547.911 235.351 545.456 240.952 543.591ZM263.392 576.732C244.44 576.732 228.416 571.665 228.279 565.649L231.579 552.734C234.645 557.824 247.519 561.539 263.392 561.539C279.263 561.539 292.138 557.824 295.202 552.733L298.504 565.649C298.367 571.665 282.343 576.732 263.392 576.732Z" fill="#124C5F"/>
<path d="M274.597 566.304C274.597 564.612 273.222 563.238 271.529 563.238C269.892 563.238 268.549 564.53 268.469 566.149H258.316C258.235 564.53 256.892 563.238 255.253 563.238C253.562 563.238 252.187 564.612 252.187 566.304C252.187 567.291 252.655 568.169 253.38 568.73C252.655 569.291 252.187 570.17 252.187 571.157C252.187 572.849 253.562 574.224 255.253 574.224C256.892 574.224 258.235 572.931 258.316 571.311H268.469C268.55 572.931 269.893 574.224 271.529 574.224C273.222 574.224 274.597 572.849 274.597 571.157C274.597 570.171 274.129 569.291 273.405 568.73C274.129 568.169 274.597 567.292 274.597 566.304ZM273.319 571.157C273.319 572.142 272.515 572.944 271.529 572.944C270.546 572.944 269.744 572.142 269.744 571.157C269.744 571.038 269.757 570.919 269.781 570.801L269.937 570.033H256.848L257.003 570.801C257.027 570.919 257.04 571.038 257.04 571.157C257.04 572.142 256.238 572.944 255.252 572.944C254.268 572.944 253.466 572.142 253.466 571.157C253.466 570.173 254.268 569.371 255.252 569.371V568.091C254.268 568.091 253.466 567.289 253.466 566.305C253.466 565.319 254.268 564.517 255.252 564.517C256.238 564.517 257.04 565.319 257.04 566.305C257.04 566.425 257.027 566.544 257.003 566.662L256.848 567.43H269.936L269.78 566.662C269.756 566.542 269.743 566.423 269.743 566.305C269.743 565.319 270.545 564.517 271.529 564.517C272.514 564.517 273.318 565.319 273.318 566.305C273.318 567.289 272.514 568.091 271.529 568.091V569.371C272.515 569.37 273.319 570.172 273.319 571.157Z" fill="#124C5F"/>
</svg>
