<svg width="49" height="47" viewBox="0 0 49 47" fill="none" xmlns="http://www.w3.org/2000/svg">
  <path
    d="M25.2221 24.1205C24.8739 28.3052 28.364 29.274 31.1922 33.1748C35.4012 38.7716 39.5681 37.7766 40.7511 34.2593C41.8774 30.8788 38.7701 27.9845 39.0664 24.2593C39.3627 20.534 43.0874 17.5915 42.5637 14.167C42.04 10.7425 38.0188 9.71343 32.8023 15.2432C29.2678 19.0664 25.6888 19.9849 25.2221 24.1205Z"
    fill="#FFE55E" />
  <path
    d="M19.176 12.8773C21.8041 15.2518 25.2226 15.3891 26.7811 13.3106C28.3396 11.2321 27.4602 7.65983 24.7753 5.42205C22.1472 3.04753 18.7287 2.91026 17.1702 4.98876C15.6685 6.93051 16.5478 10.5028 19.176 12.8773Z"
    fill="#FFAA00" />
  <path
    d="M11.2505 23.2067C14.8543 23.9019 18.3666 22.4747 19.0902 19.7287C19.7571 17.1194 17.4179 14.3839 13.6957 13.6393C10.0919 12.9441 6.57962 14.3713 5.85597 17.1173C5.18913 19.7266 7.64682 22.5114 11.2505 23.2067Z"
    fill="#FFAA00" />
  <path
    d="M11.856 35.85C15.4598 36.5452 18.972 35.118 19.6957 32.372C20.3625 29.7627 18.0234 27.0272 14.3011 26.2827C10.6974 25.5874 7.18509 27.0146 6.46144 29.7607C5.79459 32.3699 8.25228 35.1547 11.856 35.85Z"
    fill="#FFAA00" />
</svg>