<svg width="72" height="62" viewBox="0 0 72 62" fill="none" xmlns="http://www.w3.org/2000/svg">
<path d="M61.1382 14.2162C59.2723 9.80635 54.1526 7.73105 49.7427 9.59698C45.8551 11.2419 43.7931 15.2614 44.5856 19.2361L21.1438 29.155C18.8427 25.8186 14.522 24.4999 10.6344 26.1448C6.22453 28.0108 4.14923 33.1305 6.01516 37.5403C6.82536 39.4551 8.22473 40.9838 10.0325 41.8608C9.42777 43.827 9.52605 45.8378 10.3363 47.7526C12.2022 52.1624 17.3219 54.2377 21.7317 52.3718C25.6194 50.7268 27.6813 46.7074 26.8889 42.7327L50.2727 32.8383C52.5737 36.1747 56.8944 37.4935 60.7821 35.8485C65.1919 33.9826 67.2672 28.8629 65.4013 24.453C64.5911 22.5382 63.1917 21.0095 61.384 20.1325C62.0467 18.1418 61.9484 16.131 61.1382 14.2162ZM58.7662 22.6768C60.3776 23.0896 61.6877 24.2456 62.326 25.7543C63.4799 28.4814 62.208 31.6193 59.4808 32.7732C56.8117 33.9026 53.7229 32.7467 52.511 30.0441C52.1427 29.1737 51.1763 28.8301 50.306 29.1984L24.2531 40.2221C23.3827 40.5903 23.0391 41.5567 23.3248 42.3936C24.3961 45.0873 23.1576 48.1426 20.4305 49.2965C17.7034 50.4504 14.5655 49.1785 13.4115 46.4513C12.7732 44.9427 12.8557 43.1975 13.6814 41.7535C13.9648 41.2915 13.9424 40.7537 13.746 40.2895C13.5496 39.8253 13.1211 39.4593 12.6502 39.3165C11.0389 38.9037 9.72879 37.7477 9.09044 36.2391C7.93651 33.5119 9.20847 30.374 11.9356 29.2201C14.6047 28.0907 17.6935 29.2466 18.9055 31.9492C19.2737 32.8196 20.2401 33.1632 21.1105 32.795L47.2794 21.7221C48.1498 21.3539 48.4934 20.3875 48.2077 19.5506C47.1364 16.857 48.3749 13.8016 51.102 12.6477C53.8291 11.4938 56.967 12.7657 58.121 15.4929C58.7593 17.0015 58.6768 18.7467 57.8511 20.1907C57.5677 20.6527 57.59 21.1905 57.7865 21.6547C57.8668 22.168 58.2953 22.534 58.7662 22.6768Z" fill="#A0D6E7"/>
<path d="M30.6305 18.9152C31.5009 18.5469 31.9026 17.556 31.5343 16.6857L29.7911 12.5659C29.4229 11.6956 28.4319 11.2939 27.5616 11.6622C26.6912 12.0305 26.2895 13.0214 26.6578 13.8917L28.401 18.0115C28.7693 18.8818 29.7602 19.2835 30.6305 18.9152Z" fill="#A0D6E7"/>
<path d="M36.8571 17.7858C37.1383 17.8037 37.3369 17.7881 37.569 17.6898C38.1492 17.4443 38.5822 16.8507 38.5933 16.2302L38.7627 11.7801C38.7917 10.8785 38.0507 10.0974 37.1245 10.0104C36.2229 9.98146 35.4418 10.7224 35.3548 11.6486L35.1854 16.0987C35.1564 17.0003 35.8974 17.7814 36.8571 17.7858Z" fill="#A0D6E7"/>
<path d="M23.1343 22.703C23.6699 23.1605 24.3149 23.2297 24.8951 22.9841C25.1272 22.8859 25.3348 22.7297 25.4598 22.54C26.0668 21.8727 26.0221 20.797 25.3302 20.132L22.0182 17.155C21.3509 16.5479 20.2752 16.5926 19.6101 17.2845C19.0031 17.9518 19.0478 19.0275 19.7397 19.6925L23.1343 22.703Z" fill="#A0D6E7"/>
<path d="M40.8441 43.0534C39.9737 43.4217 39.572 44.4126 39.9403 45.283L41.6835 49.4027C42.0518 50.273 43.0427 50.6747 43.913 50.3064C44.7834 49.9382 45.1851 48.9473 44.8168 48.0769L43.0736 43.9572C42.7053 43.0868 41.7144 42.6851 40.8441 43.0534Z" fill="#A0D6E7"/>
<path d="M34.6174 44.183C33.7158 44.154 32.9347 44.895 32.8477 45.8211L32.6783 50.2712C32.6493 51.1729 33.3903 51.954 34.3165 52.0409C34.5977 52.0588 34.7963 52.0432 35.0284 51.945C35.6086 51.6994 36.0415 51.1058 36.0527 50.4853L36.2221 46.0352C36.318 44.9685 35.577 44.1874 34.6174 44.183Z" fill="#A0D6E7"/>
<path d="M48.3403 39.2658C47.673 38.6588 46.5973 38.7035 45.9322 39.3953C45.3252 40.0627 45.3699 41.1384 46.0618 41.8034L49.3738 44.7804C49.9095 45.2379 50.5544 45.307 51.1347 45.0615C51.3668 44.9633 51.5743 44.8071 51.6993 44.6174C52.3063 43.9501 52.2616 42.8744 51.5697 42.2093L48.3403 39.2658Z" fill="#A0D6E7"/>
</svg>
