<svg width="34" height="15" viewBox="0 0 34 15" fill="none" xmlns="http://www.w3.org/2000/svg">
<path d="M33.5879 6.19498C33.9805 5.36934 34.097 4.42541 33.9184 3.51943C33.7793 2.74891 33.4297 2.03954 32.9134 1.48073C32.3971 0.921914 31.7374 0.538673 31.0173 0.379307C30.4458 0.242458 29.8525 0.2475 29.2831 0.394042C28.7137 0.540585 28.1835 0.824712 27.7333 1.22451C26.6112 2.17281 25.2142 2.67364 23.7831 2.64065H10.2169C8.78582 2.67364 7.38878 2.17281 6.26668 1.22451C5.81651 0.824712 5.28628 0.540585 4.71689 0.394042C4.14751 0.2475 3.55419 0.242458 2.98269 0.379307C2.26261 0.538673 1.60285 0.921914 1.08659 1.48073C0.570324 2.03954 0.220653 2.74891 0.0816483 3.51943C-0.0970523 4.42541 0.0195463 5.36934 0.412146 6.19498C0.554439 6.4922 0.628633 6.82118 0.628633 7.15493C0.628633 7.48868 0.554439 7.81767 0.412146 8.11488C0.0203593 8.94079 -0.0962019 9.88441 0.0816483 10.7904C0.221014 11.5614 0.5707 12.2712 1.08682 12.8309C1.60293 13.3905 2.26249 13.775 2.98269 13.9362C3.55419 14.073 4.14751 14.068 4.71689 13.9214C5.28628 13.7749 5.81651 13.4907 6.26668 13.091C7.38828 12.1411 8.78524 11.6383 10.2169 11.6692H23.7831C25.2148 11.6383 26.6117 12.1411 27.7333 13.091C28.1835 13.4907 28.7137 13.7749 29.2831 13.9214C29.8525 14.068 30.4458 14.073 31.0173 13.9362C31.7375 13.775 32.3971 13.3905 32.9132 12.8309C33.4293 12.2712 33.779 11.5614 33.9184 10.7904C34.0962 9.88441 33.9796 8.94079 33.5879 8.11488C33.4456 7.81767 33.3714 7.48868 33.3714 7.15493C33.3714 6.82118 33.4456 6.4922 33.5879 6.19498Z" fill="#DDCA69"/>
</svg>
