<svg width="78" height="77" viewBox="0 0 78 77" fill="none" xmlns="http://www.w3.org/2000/svg">
<path d="M52.5393 37.0279C57.4341 42.8091 65.753 34.1922 65.7294 28.1599C71.2596 18.3938 60.4463 12.0557 54.4494 21.1276C48.4289 24.1672 45.5736 35.663 52.5393 37.0279ZM53.461 35.4002C46.962 34.7295 51.3313 24.7359 55.3828 22.516L55.4966 21.9355C60.6856 13.9108 68.7103 19.0998 63.5213 27.1245L63.4075 27.705C63.6585 32.5763 57.1949 40.954 52.8805 35.2865L53.461 35.4002Z" fill="#4AB1D2" fill-opacity="0.52"/>
<path d="M34.7485 26.3086C39.6433 32.0899 47.9622 23.4729 47.9387 17.4407C53.4689 7.67456 42.6555 1.33638 36.5449 10.9888C30.5244 14.0284 27.6691 25.5242 34.6348 26.8891L34.7485 26.3086ZM35.6702 24.6809C29.1712 24.0103 33.5405 14.0166 37.5921 11.7967L37.7058 11.2162C42.8948 3.19155 50.9195 8.38054 45.7305 16.4052L45.6168 16.9857C45.8678 21.857 39.4041 30.2347 35.0897 24.5672L35.6702 24.6809Z" fill="#4AB1D2" fill-opacity="0.52"/>
<path d="M58.5402 58.6975C63.082 63.2041 70.4909 59.231 69.3064 52.9712C73.107 45.88 62.8741 39.6556 57.9126 46.5193C52.1196 48.398 52.2687 56.8659 57.9597 58.5838L58.5402 58.6975ZM59.4619 57.0699L58.8814 56.9561C54.3513 55.4657 54.4415 48.853 58.8461 47.9078L59.5403 47.441C62.9996 42.0912 71.0243 47.2802 67.565 52.63L67.4512 53.2105C68.3965 57.615 62.8427 61.3489 59.3481 57.6503L59.4619 57.0699Z" fill="#4AB1D2" fill-opacity="0.52"/>
<path d="M13.1924 31.729C17.7342 36.2356 25.1431 32.2624 23.9586 26.0027C27.7592 18.9115 17.5263 12.6871 12.5648 19.5508C6.77185 21.4295 6.92089 29.8974 12.6119 31.6153L13.1924 31.729ZM14.1141 30.1014L13.5336 29.9876C9.00354 28.4972 9.09375 21.8845 13.4983 20.9392L14.1925 20.4725C17.6519 15.1227 25.6765 20.3117 22.2172 25.6615L22.1035 26.242C23.0487 30.6465 17.495 34.3804 14.0003 30.6818L14.1141 30.1014Z" fill="#4AB1D2" fill-opacity="0.52"/>
<path d="M49.5936 55.1363C58.9243 38.279 30.9007 21.3353 20.5227 37.3847C0.594334 43.7268 10.3958 58.3054 22.723 66.1457C35.164 73.4056 53.3863 75.7707 49.5936 55.1363ZM47.8522 54.7951L47.7384 55.3755C51.2919 74.1547 34.8111 72.1309 23.531 65.0985C12.2509 58.0661 2.10828 45.229 20.762 39.2399L21.4562 38.7731C31.0262 23.771 56.2612 39.5654 47.8522 54.7951Z" fill="#4AB1D2" fill-opacity="0.52"/>
</svg>
