<svg width="93" height="93" viewBox="0 0 93 93" fill="none" xmlns="http://www.w3.org/2000/svg">
<path d="M64.6458 40.5259C73.0019 47.2109 82.1937 33.0054 80.5225 24.6492C85.5362 9.60815 68.8239 3.75884 62.9745 17.9643C55.454 23.8136 54.6184 40.5259 64.6458 40.5259ZM65.4814 38.0191C56.2896 38.8547 59.6321 23.8136 64.6458 19.6355V18.7999C69.6595 6.26569 82.1937 11.2794 77.18 23.8136V24.6492C78.8512 31.3342 72.1663 44.704 64.6458 38.0191H65.4814Z" fill="#124C5F"/>
<path d="M37.0704 30.4985C45.4266 37.1834 54.6184 22.9779 52.9471 14.6218C57.9608 -0.419287 41.2485 -6.2686 35.3992 8.77248C27.8787 14.6218 27.043 31.3341 37.0704 31.3341V30.4985ZM37.906 27.9916C28.7143 28.8273 32.0567 13.7862 37.0704 9.6081V8.77248C42.0841 -3.76175 54.6184 1.25194 49.6047 13.7862V14.6218C51.2759 21.3067 44.591 34.6766 37.0704 27.9916H37.906Z" fill="#124C5F"/>
<path d="M78.8511 68.9367C86.3717 73.9504 95.5634 66.4299 92.221 58.0737C95.5634 47.2107 79.6868 41.3614 74.6731 52.2244C67.1525 56.4025 69.6594 68.1011 78.0155 68.9367H78.8511ZM79.6868 66.4299H78.8511C72.1662 65.5943 70.495 56.4025 76.3443 53.8956L77.1799 53.06C80.5224 44.7039 93.0566 49.7176 89.7141 58.0737V58.9093C92.221 64.7586 85.5361 71.4436 79.6868 67.2655V66.4299Z" fill="#124C5F"/>
<path d="M8.65949 43.8683C16.18 48.882 25.3718 41.3615 22.0293 33.0053C25.3718 22.1423 9.49511 16.293 4.48141 27.156C-3.03913 31.3341 -0.532283 43.0327 7.82387 43.8683H8.65949ZM9.4951 41.3615H8.65949C1.97456 40.5259 0.303333 31.3341 6.15264 28.8272L6.98826 27.9916C10.3307 19.6355 22.865 24.6492 19.5225 33.0053V33.8409C22.0293 39.6902 15.3444 46.3752 9.4951 42.1971V41.3615Z" fill="#124C5F"/>
<path d="M65.4811 66.4299C73.8373 40.5259 30.3853 24.6492 20.3579 49.7176C-5.5462 63.9231 12.0017 81.471 31.2209 88.9916C50.44 95.6765 76.3441 94.0053 65.4811 66.4299ZM62.9743 66.4299V67.2656C73.0017 92.334 49.6044 94.0053 32.0565 87.3203C14.5086 80.6354 -3.03935 65.5943 21.1935 52.2245L22.0291 51.3889C31.2209 27.9916 70.4948 43.0327 62.9743 66.4299Z" fill="#124C5F"/>
</svg>
