<svg width="736" height="690" viewBox="0 0 736 690" fill="none" xmlns="http://www.w3.org/2000/svg">
<path d="M45.6009 589.842C50.6104 597.177 57.4604 593.992 67.1542 596.518C81.3035 599.935 86.6208 592.605 83.8293 585.222C81.1291 578.141 72.3288 577.646 67.8477 571.135C63.3665 564.623 65.3896 554.706 60.0015 549.809C54.6135 544.912 46.8371 548.725 45.8768 564.923C45.328 576.024 40.8458 582.425 45.6009 589.842Z" fill="#FFAA00"/>
<path d="M53.0296 611.632C54.8372 603.77 60.1935 598.414 64.6685 600.293C69.1435 602.171 71.5174 610.019 69.5467 618.265C67.739 626.127 62.3828 631.482 57.9077 629.604C53.4327 627.725 51.3132 619.796 53.0296 611.632Z" fill="#FFAA00"/>
<path d="M29.1104 575.917C36.4559 576.215 42.086 571.765 41.806 566.226C41.5259 560.688 35.3746 556.035 28.1204 556.039C20.7749 555.742 15.1447 560.192 15.4248 565.73C15.6136 570.967 21.7649 575.62 29.1104 575.917Z" fill="#FFAA00"/>
<path d="M30.8044 605.502C35.8867 599.241 43.1019 597.263 46.8526 601.36C50.6033 605.456 49.5785 614.061 44.4961 620.322C39.4138 626.584 32.1986 628.562 28.4478 624.465C24.9515 620.287 25.8133 612.065 30.8044 605.502Z" fill="#FFAA00"/>
<path d="M28.2539 601.684C34.9213 597.895 38.6207 590.752 36.1226 585.261C33.7158 580.072 26.3508 578.787 19.429 582.657C12.7616 586.447 9.06222 593.59 11.5603 599.08C13.9671 604.269 21.5865 605.473 28.2539 601.684Z" fill="#FFAA00"/>
<g clip-path="url(#clip0_158_3)">
<path d="M596.315 214.248C623.044 267.449 617.403 335.144 608.822 389.612C600.548 444.502 589.642 486.585 570.324 523.305C551.364 560.077 524.041 591.116 489.581 612.836C455.531 634.238 413.985 646.269 365.815 650.561C317.595 655.222 262.035 652.04 210.387 625.71C158.688 599.749 110.543 550.588 90.7217 489.733C71.3104 428.56 80.2235 355.694 119.056 310.141C157.479 264.904 225.821 246.98 285.992 213.939C346.522 180.951 398.931 132.477 454.889 127.435C510.797 122.762 569.895 161.468 596.315 214.248Z" fill="#F1C21B"/>
</g>
<g clip-path="url(#clip1_158_3)">
<mask id="mask0_158_3" style="mask-type:alpha" maskUnits="userSpaceOnUse" x="80" y="127" width="536" height="526">
<path d="M596.315 214.248C623.044 267.449 617.403 335.144 608.822 389.612C600.548 444.502 589.642 486.585 570.324 523.305C551.364 560.077 524.041 591.116 489.581 612.836C455.531 634.238 413.985 646.269 365.815 650.561C317.595 655.222 262.035 652.04 210.387 625.71C158.688 599.749 110.543 550.588 90.7217 489.733C71.3104 428.56 80.2235 355.694 119.056 310.141C157.479 264.904 225.821 246.98 285.992 213.939C346.522 180.951 398.931 132.477 454.889 127.435C510.797 122.762 569.895 161.468 596.315 214.248Z" fill="#FFE55E"/>
</mask>
<g mask="url(#mask0_158_3)">
<path d="M123.348 428.708C125.311 441.588 137.292 442.319 149.06 452.561C166.628 467.124 179.44 461.892 180.989 451.226C182.539 440.561 169.883 433.417 168.701 422.194C166.907 410.918 177.373 400.715 172.961 391.116C168.884 381.229 155.118 379.706 141.707 398.864C133.194 411.462 121.997 415.883 123.348 428.708Z" fill="white"/>
<path d="M625.523 520.633C638.188 507.148 627.154 492.992 627.121 470.753C626.245 438.191 607.625 428.317 593.993 435.902C580.361 443.487 584.789 464.016 573.229 475.169C562.216 487.06 540.28 484.181 533.76 497.558C526.582 510.81 538.485 527.672 573.494 526.036C596.212 524.617 612.312 533.379 625.523 520.633Z" fill="white"/>
<path d="M124.015 519.781C137.049 506.731 153.955 503.807 162.289 511.876C170.108 520.39 166.177 538.151 153.658 550.756C140.624 563.806 123.718 566.73 115.384 558.661C106.621 550.065 110.981 532.831 124.015 519.781Z" fill="white"/>
<path d="M117.101 364.056C133.003 372.794 150.27 371.367 155.499 360.56C161.159 350.281 152.552 334.345 136.651 325.607C120.749 316.868 103.483 318.296 98.2527 329.103C93.023 339.909 101.2 355.318 117.101 364.056Z" fill="white"/>
<path d="M86.4277 456.365C104.535 450.609 122.224 455.093 125.927 467.163C129.63 479.233 117.884 493.865 99.7765 499.621C81.6688 505.378 63.9802 500.893 60.2769 488.823C56.5736 476.754 68.32 462.121 86.4277 456.365Z" fill="white"/>
<path d="M77.4194 434.617C96.3978 435.299 112.017 425.406 112.606 413.219C112.765 400.505 97.9845 389.91 79.0061 389.228C60.0277 388.546 44.4088 398.438 43.8197 410.626C43.6605 423.34 58.441 433.935 77.4194 434.617Z" fill="white"/>
</g>
</g>
<path d="M231.332 157.686C224.873 159.079 224.359 165.332 219.321 171.958C212.093 181.651 214.79 188.51 220.299 189.023C225.808 189.535 229.277 182.699 235.152 181.981C240.881 180.892 246.352 186.165 251.315 183.669C256.352 181.358 256.793 173.841 246.944 167.153C240.342 162.781 237.827 156.925 231.332 157.686Z" fill="#D9A6FF"/>
<path d="M213.697 154.979C218.028 159.825 219.484 166.097 216.976 168.974C214.295 171.923 208.635 170.381 204.303 165.535C199.972 160.688 198.516 154.416 201.024 151.539C203.705 148.59 209.365 150.132 213.697 154.979Z" fill="#D9A6FF"/>
<path d="M245.985 149.597C243.164 155.336 243.84 161.358 247.305 163.177C250.771 164.996 255.931 161.98 258.752 156.241C261.573 150.503 260.897 144.48 257.432 142.661C253.785 140.918 248.624 143.934 245.985 149.597Z" fill="#D9A6FF"/>
<path d="M226.588 140.312C228.948 146.85 227.521 153.368 223.654 154.749C219.787 156.129 214.744 151.848 212.383 145.31C210.022 138.773 211.449 132.255 215.317 130.874C219.184 129.493 224.227 133.775 226.588 140.312Z" fill="#D9A6FF"/>
<path d="M230.013 139.514C229.911 146.013 233.147 151.123 237.047 151.166C241.123 151.137 244.423 146.015 244.595 139.696C244.697 133.197 241.461 128.087 237.561 128.044C233.59 127.821 230.115 133.016 230.013 139.514Z" fill="#D9A6FF"/>
<path d="M475.139 173.214C472.181 171.586 469.995 173.849 465.929 174.736C460.035 176.083 458.907 179.66 460.89 181.711C462.873 183.761 466.395 182.265 468.911 183.959C471.488 185.46 471.944 189.352 474.669 190.048C477.365 190.84 479.924 188.06 478.212 182.147C477.03 178.226 477.91 175.1 475.139 173.214Z" fill="#FFF1A6"/>
<path d="M469.131 166.234C469.279 169.577 467.853 172.508 465.963 172.786C463.982 173.034 462.268 170.531 462.12 167.189C461.972 163.846 463.397 160.914 465.288 160.636C467.269 160.388 468.983 162.891 469.131 166.234Z" fill="#FFF1A6"/>
<path d="M483.415 174.987C480.494 176.274 478.844 178.847 479.616 180.72C480.388 182.592 483.356 183.152 486.277 181.865C489.198 180.578 490.847 178.005 490.076 176.132C489.209 174.228 486.241 173.669 483.415 174.987Z" fill="#FFF1A6"/>
<path d="M478.809 164.853C477.652 168.193 475.026 170.252 473.082 169.49C471.137 168.728 470.533 165.366 471.69 162.027C472.847 158.688 475.472 156.629 477.417 157.39C479.362 158.152 479.966 161.514 478.809 164.853Z" fill="#FFF1A6"/>
<path d="M480.397 165.694C478.293 168.19 477.93 171.268 479.436 172.595C481.032 173.953 483.944 173.067 486.018 170.664C488.122 168.168 488.485 165.09 486.979 163.763C485.504 162.342 482.5 163.197 480.397 165.694Z" fill="#FFF1A6"/>
<path d="M561.134 253.066C559.402 250.323 556.581 251.174 552.809 250C547.316 248.347 544.79 250.787 545.525 253.422C546.261 256.058 549.851 256.471 551.187 259.061C552.66 261.519 551.309 264.965 553.264 266.824C555.15 268.749 558.51 267.644 559.717 261.929C560.477 258.116 562.597 255.935 561.134 253.066Z" fill="#FFF1A6"/>
<path d="M559.247 244.444C557.884 247.29 555.398 249.054 553.704 248.396C551.949 247.671 551.638 244.786 553 241.941C554.363 239.096 556.85 237.331 558.543 237.989C560.298 238.715 560.61 241.599 559.247 244.444Z" fill="#FFF1A6"/>
<path d="M567.219 258.429C564.221 258.124 561.708 259.485 561.517 261.403C561.325 263.322 563.541 265.181 566.539 265.486C569.537 265.791 572.05 264.43 572.241 262.512C572.368 260.522 570.152 258.663 567.219 258.429Z" fill="#FFF1A6"/>
<path d="M567.898 247.849C565.453 250.078 562.357 250.553 561.081 249.006C559.804 247.459 560.797 244.383 563.241 242.154C565.686 239.925 568.782 239.45 570.058 240.996C571.334 242.543 570.342 245.619 567.898 247.849Z" fill="#FFF1A6"/>
<path d="M568.842 249.292C565.986 250.377 564.317 252.762 564.977 254.572C565.7 256.45 568.512 257.084 571.302 256.063C574.158 254.979 575.827 252.594 575.167 250.784C574.573 248.91 571.699 248.208 568.842 249.292Z" fill="#FFF1A6"/>
<path d="M441.226 262.704C438.245 261.566 436.474 263.98 432.766 265.351C427.398 267.394 426.786 270.903 428.904 272.567C431.023 274.231 434.144 272.36 436.718 273.619C439.326 274.688 440.24 278.283 442.887 278.576C445.517 278.964 447.574 276.015 445.228 270.687C443.627 267.161 444.064 264.109 441.226 262.704Z" fill="#FFF1A6"/>
<path d="M434.711 256.942C435.267 260.062 434.295 263.004 432.554 263.515C430.725 264.009 428.802 261.885 428.246 258.765C427.69 255.645 428.662 252.704 430.403 252.193C432.232 251.699 434.155 253.822 434.711 256.942Z" fill="#FFF1A6"/>
<path d="M449.219 263.276C446.637 264.871 445.409 267.505 446.367 269.162C447.326 270.818 450.183 270.952 452.766 269.357C455.349 267.762 456.577 265.128 455.618 263.471C454.566 261.797 451.709 261.664 449.219 263.276Z" fill="#FFF1A6"/>
<path d="M443.629 254.367C442.959 257.656 440.75 259.937 438.829 259.479C436.907 259.02 435.92 255.942 436.589 252.653C437.259 249.364 439.468 247.084 441.389 247.542C443.311 248 444.298 251.078 443.629 254.367Z" fill="#FFF1A6"/>
<path d="M445.224 254.946C443.561 257.569 443.604 260.507 445.184 261.555C446.853 262.62 449.477 261.403 451.125 258.872C452.789 256.249 452.745 253.311 451.166 252.263C449.602 251.124 446.888 252.324 445.224 254.946Z" fill="#FFF1A6"/>
<path d="M345.487 219.045C342.419 219.906 342.347 222.929 340.109 226.265C336.904 231.142 338.393 234.361 341.057 234.444C343.722 234.527 345.199 231.137 348.004 230.617C350.73 229.924 353.508 232.299 355.826 230.951C358.184 229.69 358.185 226.062 353.261 223.136C349.963 221.229 348.59 218.487 345.487 219.045Z" fill="#FFF1A6"/>
<path d="M336.929 218.265C339.148 220.468 340.024 223.441 338.898 224.899C337.691 226.397 334.925 225.823 332.706 223.62C330.487 221.417 329.612 218.444 330.737 216.986C331.944 215.488 334.71 216.062 336.929 218.265Z" fill="#FFF1A6"/>
<path d="M352.309 214.721C351.112 217.564 351.606 220.441 353.324 221.213C355.041 221.986 357.439 220.382 358.636 217.538C359.832 214.695 359.338 211.818 357.62 211.046C355.817 210.315 353.42 211.919 352.309 214.721Z" fill="#FFF1A6"/>
<path d="M342.719 210.829C344.037 213.903 343.533 217.081 341.712 217.859C339.891 218.638 337.345 216.728 336.027 213.653C334.708 210.579 335.212 207.401 337.034 206.623C338.855 205.844 341.401 207.754 342.719 210.829Z" fill="#FFF1A6"/>
<path d="M344.344 210.344C344.477 213.472 346.177 215.834 348.054 215.74C350.013 215.605 351.457 213.044 351.363 209.999C351.23 206.87 349.531 204.508 347.654 204.603C345.738 204.613 344.211 207.215 344.344 210.344Z" fill="#FFF1A6"/>
<path d="M245.941 266.928C245.409 270.335 248.202 271.722 250.343 275.387C253.503 280.679 257.159 280.609 258.397 278.012C259.635 275.415 257.111 272.479 257.847 269.48C258.387 266.485 261.815 264.772 261.565 261.895C261.415 259.016 258.026 257.434 253.148 261.026C249.931 263.455 246.771 263.618 245.941 266.928Z" fill="#FFF1A6"/>
<path d="M241.485 275.046C244.509 273.812 247.668 274.242 248.54 275.99C249.414 277.835 247.673 280.318 244.649 281.552C241.624 282.786 238.465 282.356 237.593 280.608C236.72 278.763 238.461 276.28 241.485 275.046Z" fill="#FFF1A6"/>
<path d="M244.872 258.303C247.007 260.724 249.91 261.489 251.379 260.127C252.849 258.766 252.395 255.698 250.26 253.277C248.124 250.856 245.222 250.091 243.752 251.453C242.285 252.916 242.738 255.985 244.872 258.303Z" fill="#FFF1A6"/>
<path d="M237.06 266.085C240.506 266.121 243.255 268.003 243.189 270.142C243.123 272.282 240.23 273.966 236.784 273.93C233.338 273.894 230.589 272.012 230.655 269.873C230.721 267.733 233.614 266.049 237.06 266.085Z" fill="#FFF1A6"/>
<path d="M237.315 264.268C240.295 265.499 243.242 264.848 243.971 262.952C244.698 260.956 242.935 258.414 240.05 257.181C237.069 255.95 234.123 256.6 233.393 258.497C232.569 260.395 234.334 263.037 237.315 264.268Z" fill="#FFF1A6"/>
<path d="M576.525 392.515C573.804 390.497 571.345 392.441 567.2 392.765C561.184 393.294 559.604 396.686 561.305 398.989C563.005 401.293 566.69 400.291 568.964 402.314C571.325 404.153 571.274 408.073 573.886 409.135C576.455 410.289 579.35 407.884 578.418 401.788C577.752 397.74 579.028 394.763 576.525 392.515Z" fill="#FFF1A6"/>
<path d="M571.472 384.776C571.186 388.109 569.395 390.82 567.486 390.837C565.49 390.812 564.114 388.097 564.4 384.764C564.685 381.431 566.476 378.72 568.386 378.702C570.381 378.728 571.757 381.442 571.472 384.776Z" fill="#FFF1A6"/>
<path d="M584.498 395.403C581.437 396.28 579.47 398.604 579.993 400.566C580.516 402.527 583.385 403.487 586.447 402.611C589.508 401.735 591.476 399.41 590.952 397.448C590.339 395.442 587.47 394.482 584.498 395.403Z" fill="#FFF1A6"/>
<path d="M581.243 384.73C579.665 387.882 576.796 389.564 574.967 388.543C573.138 387.522 572.973 384.107 574.551 380.956C576.129 377.804 578.998 376.122 580.827 377.143C582.656 378.164 582.821 381.579 581.243 384.73Z" fill="#FFF1A6"/>
<path d="M582.708 385.779C580.3 387.967 579.543 390.967 580.864 392.489C582.271 394.053 585.271 393.573 587.637 391.474C590.045 389.287 590.802 386.286 589.481 384.765C588.202 383.155 585.115 383.592 582.708 385.779Z" fill="#FFF1A6"/>
<path d="M203.682 546.528C200.568 545.245 198.637 547.742 194.691 549.085C188.977 551.091 188.239 554.775 190.43 556.588C192.62 558.402 195.961 556.515 198.643 557.914C201.365 559.113 202.235 562.93 205.019 563.312C207.783 563.794 210.029 560.741 207.694 555.058C206.098 551.295 206.638 548.088 203.682 546.528Z" fill="#FFF1A6"/>
<path d="M196.962 540.271C197.467 543.577 196.365 546.652 194.516 547.143C192.574 547.614 190.601 545.321 190.096 542.015C189.591 538.709 190.694 535.634 192.543 535.143C194.485 534.673 196.457 536.966 196.962 540.271Z" fill="#FFF1A6"/>
<path d="M212.097 547.352C209.332 548.962 207.968 551.706 208.936 553.48C209.904 555.254 212.913 555.473 215.679 553.863C218.444 552.253 219.808 549.509 218.84 547.735C217.775 545.94 214.765 545.721 212.097 547.352Z" fill="#FFF1A6"/>
<path d="M206.434 537.802C205.642 541.252 203.252 543.596 201.238 543.06C199.224 542.523 198.263 539.25 199.055 535.8C199.847 532.35 202.236 530.006 204.25 530.542C206.265 531.079 207.226 534.352 206.434 537.802Z" fill="#FFF1A6"/>
<path d="M208.102 538.457C206.278 541.177 206.248 544.277 207.886 545.426C209.618 546.594 212.418 545.384 214.222 542.76C216.045 540.04 216.076 536.94 214.437 535.792C212.818 534.547 209.925 535.737 208.102 538.457Z" fill="#FFF1A6"/>
<path d="M669.093 390.06C665.775 384.428 659.876 386.067 652.194 383.604C641.002 380.071 635.674 385.026 637.08 390.464C638.349 395.786 645.77 396.848 648.288 402.043C651.17 407.071 648.176 413.995 652.095 418.009C655.877 421.907 662.752 419.909 665.663 408.191C667.558 400.341 672.185 395.976 669.093 390.06Z" fill="#FF6E9F"/>
<path d="M665.761 373.786C663.281 379.49 658.28 382.595 654.72 381.01C651.161 379.426 650.318 373.282 652.935 367.694C655.415 361.99 660.279 358.769 663.976 360.469C667.672 362.17 668.241 368.082 665.761 373.786Z" fill="#FF6E9F"/>
<path d="M680.938 401.704C674.929 400.888 669.766 403.62 669.274 407.694C668.783 411.768 673.314 415.589 679.299 416.148C685.308 416.964 690.472 414.232 690.963 410.158C691.455 406.085 686.923 402.263 680.938 401.704Z" fill="#FF6E9F"/>
<path d="M683.272 380.05C678.37 384.184 672.259 384.936 669.551 381.707C666.843 378.478 668.774 372.311 673.676 368.178C678.579 364.045 684.689 363.293 687.397 366.521C690.105 369.75 688.175 375.917 683.272 380.05Z" fill="#FF6E9F"/>
<path d="M684.819 383.008C678.719 385.187 675.028 390.105 676.423 394.116C677.818 398.128 683.764 399.599 689.864 397.421C695.964 395.242 699.655 390.324 698.26 386.312C696.865 382.301 690.919 380.83 684.819 383.008Z" fill="#FF6E9F"/>
<defs>
<clipPath id="clip0_158_3">
<rect width="670.778" height="689.946" fill="white" transform="translate(64.4199)"/>
</clipPath>
<clipPath id="clip1_158_3">
<rect width="670.778" height="689.946" fill="white" transform="translate(64.4199)"/>
</clipPath>
</defs>
</svg>
